<svg width="1438" height="1002" viewBox="0 0 1438 1002" fill="none" xmlns="http://www.w3.org/2000/svg">
<g opacity="0.1">
<path d="M129.136 75.9193L129.137 75.9194C129.866 75.966 130.597 75.9816 131.33 75.9816C152.223 75.9816 169.161 59.0434 169.161 38.151C169.161 17.2586 152.223 0.320408 131.33 0.320408C110.438 0.320408 93.5 17.2585 93.5156 38.1508V38.151C93.5156 44.2698 94.9634 50.0452 97.5318 55.151C97.5319 55.1511 97.5319 55.1513 97.532 55.1514L97.2458 55.2954C98.2035 57.1794 98.7373 59.3146 98.7373 61.5754C98.7373 69.2998 92.473 75.5641 84.7486 75.5641C77.0242 75.5641 70.7599 69.2998 70.7599 61.5754C70.7599 59.3146 71.2937 57.1794 72.2514 55.2954C74.8419 50.1301 76.302 44.3211 76.302 38.151C76.302 17.0816 59.2204 0 38.151 0C17.0816 0 0 17.0816 0 38.151C0 59.2204 17.0816 76.302 38.1039 76.302C38.8418 76.302 39.5797 76.2863 40.3019 76.2392L129.136 75.9193ZM129.136 75.9193C128.859 75.9031 128.584 75.9031 128.305 75.9031H128.3C120.399 75.9031 113.991 82.3108 113.991 90.2122C113.991 93.1186 114.859 95.817 116.336 98.0655L116.337 98.0661C120.275 104.028 122.548 111.173 122.548 118.849C122.548 139.741 105.61 156.68 84.7172 156.68C63.8247 156.68 46.8866 139.741 46.8866 118.849C46.8866 111.174 49.175 104.028 53.0979 98.066L129.136 75.9193Z" stroke="white" stroke-width="0.640816"/>
<path d="M222.315 75.9194L222.313 75.9193C208.459 75.1254 196.611 66.8905 190.695 55.1518C188.126 50.0298 186.678 44.2698 186.678 38.151C186.678 17.2586 203.616 0.320408 224.509 0.320408C245.401 0.320408 262.339 17.2586 262.339 38.151C262.339 59.0434 245.401 75.9816 224.509 75.9816C223.775 75.9816 223.044 75.966 222.315 75.9194Z" stroke="white" stroke-width="0.640816"/>
<path d="M146.308 98.0656L146.308 98.0656C153.065 87.7901 164.71 81.0184 177.927 81.0184C191.144 81.0184 202.773 87.8055 209.546 98.066C213.469 104.028 215.758 111.174 215.758 118.849C215.758 139.741 198.819 156.68 177.927 156.68C157.035 156.68 140.096 139.741 140.096 118.849C140.096 111.173 142.385 104.028 146.308 98.0656Z" stroke="white" stroke-width="0.640816"/>
<path d="M368.592 81.0807L368.591 81.0806C367.862 81.034 367.131 81.0184 366.397 81.0184C345.505 81.0184 328.567 97.9566 328.567 118.849C328.567 139.741 345.505 156.68 366.397 156.68C387.29 156.68 404.228 139.741 404.212 118.849L404.212 118.849C404.212 112.73 402.764 106.955 400.196 101.849C400.196 101.849 400.196 101.849 400.196 101.849L400.482 101.705C399.524 99.8206 398.991 97.6854 398.991 95.4246C398.991 87.7002 405.255 81.4359 412.979 81.4359C420.704 81.4359 426.968 87.7002 426.968 95.4246C426.968 97.6854 426.434 99.8206 425.476 101.705C422.886 106.87 421.426 112.679 421.426 118.849C421.426 139.918 438.507 157 459.577 157C480.646 157 497.728 139.918 497.728 118.849C497.728 97.7796 480.646 80.698 459.624 80.698C458.886 80.698 458.148 80.7137 457.426 80.7608L368.592 81.0807ZM368.592 81.0807C368.869 81.0969 369.143 81.0969 369.423 81.0969L369.427 81.0969C377.329 81.0969 383.737 74.6892 383.737 66.7878C383.737 63.8815 382.869 61.183 381.392 58.9346L381.391 58.9339C377.453 52.9721 375.18 45.827 375.18 38.151C375.18 17.2586 392.118 0.320435 413.011 0.320437C433.903 0.320438 450.841 17.2586 450.841 38.151C450.841 45.8264 448.553 52.9716 444.63 58.9341L368.592 81.0807Z" stroke="white" stroke-width="0.640816"/>
<path d="M275.412 81.0806L275.414 81.0807C289.269 81.8746 301.117 90.1095 307.033 101.848C309.602 106.97 311.05 112.73 311.05 118.849C311.05 139.741 294.111 156.68 273.219 156.68C252.327 156.68 235.388 139.741 235.388 118.849C235.388 97.9566 252.327 81.0184 273.219 81.0184C273.953 81.0184 274.683 81.0341 275.412 81.0806Z" stroke="white" stroke-width="0.640816"/>
<path d="M351.42 58.9344L351.42 58.9345C344.663 69.2099 333.018 75.9816 319.801 75.9816C306.584 75.9816 294.954 69.1946 288.181 58.934C284.259 52.9716 281.97 45.8264 281.97 38.151C281.97 17.2586 298.908 0.320449 319.801 0.320451C340.693 0.320453 357.631 17.2586 357.631 38.151C357.631 45.8266 355.343 52.9719 351.42 58.9344Z" stroke="white" stroke-width="0.640816"/>
<path d="M599.272 75.9193L599.273 75.9194C600.002 75.966 600.733 75.9816 601.467 75.9816C622.359 75.9816 639.297 59.0434 639.297 38.151C639.297 17.2586 622.359 0.320408 601.467 0.320408C580.574 0.320408 563.636 17.2585 563.652 38.1508V38.151C563.652 44.2698 565.099 50.0452 567.668 55.151C567.668 55.1511 567.668 55.1513 567.668 55.1514L567.382 55.2954C568.34 57.1794 568.873 59.3146 568.873 61.5754C568.873 69.2998 562.609 75.5641 554.885 75.5641C547.16 75.5641 540.896 69.2998 540.896 61.5754C540.896 59.3146 541.43 57.1794 542.387 55.2954C544.978 50.1301 546.438 44.3211 546.438 38.151C546.438 17.0816 529.356 0 508.287 0C487.218 0 470.136 17.0816 470.136 38.151C470.136 59.2204 487.218 76.302 508.24 76.302C508.978 76.302 509.716 76.2863 510.438 76.2392L599.272 75.9193ZM599.272 75.9193C598.995 75.9031 598.72 75.9031 598.441 75.9031H598.436C590.535 75.9031 584.127 82.3108 584.127 90.2122C584.127 93.1186 584.995 95.817 586.472 98.0655L586.473 98.0661C590.411 104.028 592.684 111.173 592.684 118.849C592.684 139.741 575.746 156.68 554.853 156.68C533.961 156.68 517.023 139.741 517.023 118.849C517.023 111.174 519.311 104.028 523.234 98.066L599.272 75.9193Z" stroke="white" stroke-width="0.640816"/>
<path d="M692.452 75.9194L692.449 75.9193C678.595 75.1254 666.747 66.8905 660.831 55.1518C658.262 50.0298 656.814 44.2698 656.814 38.151C656.814 17.2586 673.752 0.320408 694.645 0.320408C715.537 0.320408 732.475 17.2586 732.475 38.151C732.475 59.0434 715.537 75.9816 694.645 75.9816C693.911 75.9816 693.181 75.966 692.452 75.9194Z" stroke="white" stroke-width="0.640816"/>
<path d="M616.444 98.0656L616.444 98.0656C623.201 87.7901 634.846 81.0184 648.063 81.0184C661.28 81.0184 672.909 87.8055 679.682 98.066C683.605 104.028 685.894 111.174 685.894 118.849C685.894 139.741 668.956 156.68 648.063 156.68C627.171 156.68 610.232 139.741 610.232 118.849C610.232 111.173 612.521 104.028 616.444 98.0656Z" stroke="white" stroke-width="0.640816"/>
<path d="M838.728 81.0807L838.727 81.0806C837.998 81.034 837.267 81.0184 836.533 81.0184C815.641 81.0184 798.703 97.9566 798.703 118.849C798.703 139.741 815.641 156.68 836.533 156.68C857.426 156.68 874.364 139.741 874.348 118.849L874.348 118.849C874.348 112.73 872.9 106.955 870.332 101.849C870.332 101.849 870.332 101.849 870.332 101.849L870.618 101.705C869.66 99.8206 869.127 97.6854 869.127 95.4246C869.127 87.7002 875.391 81.4359 883.115 81.4359C890.84 81.4359 897.104 87.7002 897.104 95.4246C897.104 97.6854 896.57 99.8206 895.612 101.705C893.022 106.87 891.562 112.679 891.562 118.849C891.562 139.918 908.643 157 929.713 157C950.782 157 967.864 139.918 967.864 118.849C967.864 97.7796 950.782 80.698 929.76 80.698C929.022 80.698 928.284 80.7137 927.562 80.7608L838.728 81.0807ZM838.728 81.0807C839.005 81.0969 839.279 81.0969 839.559 81.0969L839.563 81.0969C847.465 81.0969 853.873 74.6892 853.873 66.7878C853.873 63.8815 853.005 61.183 851.528 58.9346L851.527 58.9339C847.589 52.9721 845.316 45.827 845.316 38.151C845.316 17.2586 862.254 0.320435 883.147 0.320437C904.039 0.320438 920.977 17.2586 920.977 38.151C920.977 45.8264 918.689 52.9716 914.766 58.9341L838.728 81.0807Z" stroke="white" stroke-width="0.640816"/>
<path d="M745.548 81.0806L745.55 81.0807C759.405 81.8746 771.253 90.1095 777.169 101.848C779.738 106.97 781.186 112.73 781.186 118.849C781.186 139.741 764.248 156.68 743.355 156.68C722.463 156.68 705.524 139.741 705.524 118.849C705.524 97.9566 722.463 81.0184 743.355 81.0184C744.089 81.0184 744.819 81.034 745.548 81.0806Z" stroke="white" stroke-width="0.640816"/>
<path d="M821.556 58.9344L821.556 58.9345C814.799 69.2099 803.154 75.9816 789.937 75.9816C776.72 75.9816 765.09 69.1945 758.318 58.934C754.395 52.9716 752.106 45.8264 752.106 38.151C752.106 17.2586 769.044 0.320419 789.937 0.320421C810.829 0.320422 827.767 17.2586 827.767 38.151C827.767 45.8265 825.479 52.9719 821.556 58.9344Z" stroke="white" stroke-width="0.640816"/>
<path d="M1069.41 75.9193L1069.41 75.9194C1070.14 75.966 1070.87 75.9816 1071.6 75.9816C1092.5 75.9816 1109.43 59.0434 1109.43 38.151C1109.43 17.2586 1092.5 0.320408 1071.6 0.320408C1050.71 0.320408 1033.77 17.2585 1033.79 38.1508V38.151C1033.79 44.2698 1035.24 50.0452 1037.8 55.151C1037.8 55.1511 1037.8 55.1513 1037.8 55.1514L1037.52 55.2954C1038.48 57.1794 1039.01 59.3146 1039.01 61.5754C1039.01 69.2998 1032.75 75.5641 1025.02 75.5641C1017.3 75.5641 1011.03 69.2998 1011.03 61.5754C1011.03 59.3146 1011.57 57.1794 1012.52 55.2954C1015.11 50.1301 1016.57 44.3211 1016.57 38.151C1016.57 17.0816 999.492 0 978.423 0C957.354 0 940.272 17.0816 940.272 38.151C940.272 59.2204 957.354 76.302 978.376 76.302C979.114 76.302 979.852 76.2863 980.574 76.2392L1069.41 75.9193ZM1069.41 75.9193C1069.13 75.9031 1068.86 75.9031 1068.58 75.9031H1068.57C1060.67 75.9031 1054.26 82.3108 1054.26 90.2122C1054.26 93.1186 1055.13 95.817 1056.61 98.0655L1056.61 98.0661C1060.55 104.028 1062.82 111.173 1062.82 118.849C1062.82 139.741 1045.88 156.68 1024.99 156.68C1004.1 156.68 987.159 139.741 987.159 118.849C987.159 111.174 989.447 104.028 993.37 98.066L1069.41 75.9193Z" stroke="white" stroke-width="0.640816"/>
<path d="M1162.59 75.9194L1162.59 75.9193C1148.73 75.1254 1136.88 66.8905 1130.97 55.1518C1128.4 50.0298 1126.95 44.2698 1126.95 38.151C1126.95 17.2586 1143.89 0.320408 1164.78 0.320408C1185.67 0.320408 1202.61 17.2586 1202.61 38.151C1202.61 59.0434 1185.67 75.9816 1164.78 75.9816C1164.05 75.9816 1163.32 75.966 1162.59 75.9194Z" stroke="white" stroke-width="0.640816"/>
<path d="M1086.58 98.0656L1086.58 98.0656C1093.34 87.7901 1104.98 81.0184 1118.2 81.0184C1131.42 81.0184 1143.05 87.8055 1149.82 98.066C1153.74 104.028 1156.03 111.174 1156.03 118.849C1156.03 139.741 1139.09 156.68 1118.2 156.68C1097.31 156.68 1080.37 139.741 1080.37 118.849C1080.37 111.173 1082.66 104.028 1086.58 98.0656Z" stroke="white" stroke-width="0.640816"/>
<path d="M1308.86 81.0806L1308.86 81.0806C1308.13 81.034 1307.4 81.0184 1306.67 81.0184C1285.78 81.0184 1268.84 97.9565 1268.84 118.849C1268.84 139.741 1285.78 156.68 1306.67 156.68C1327.56 156.68 1344.5 139.741 1344.48 118.849L1344.48 118.849C1344.48 112.73 1343.04 106.955 1340.47 101.849C1340.47 101.849 1340.47 101.849 1340.47 101.849L1340.75 101.705C1339.8 99.8206 1339.26 97.6854 1339.26 95.4246C1339.26 87.7002 1345.53 81.4359 1353.25 81.4359C1360.98 81.4359 1367.24 87.7002 1367.24 95.4246C1367.24 97.6854 1366.71 99.8206 1365.75 101.705C1363.16 106.87 1361.7 112.679 1361.7 118.849C1361.7 139.918 1378.78 157 1399.85 157C1420.92 157 1438 139.918 1438 118.849C1438 97.7796 1420.92 80.698 1399.9 80.698C1399.16 80.698 1398.42 80.7137 1397.7 80.7608L1308.86 81.0806ZM1308.86 81.0806C1309.14 81.0969 1309.42 81.0969 1309.7 81.0969L1309.7 81.0969C1317.6 81.0969 1324.01 74.6892 1324.01 66.7878C1324.01 63.8814 1323.14 61.183 1321.66 58.9345L1321.66 58.9339C1317.73 52.972 1315.45 45.827 1315.45 38.151C1315.45 17.2586 1332.39 0.320404 1353.28 0.320406C1374.18 0.320408 1391.11 17.2586 1391.11 38.151C1391.11 45.8264 1388.83 52.9716 1384.9 58.934L1308.86 81.0806Z" stroke="white" stroke-width="0.640816"/>
<path d="M1215.68 81.0806L1215.69 81.0807C1229.54 81.8746 1241.39 90.1095 1247.31 101.848C1249.87 106.97 1251.32 112.73 1251.32 118.849C1251.32 139.741 1234.38 156.68 1213.49 156.68C1192.6 156.68 1175.66 139.741 1175.66 118.849C1175.66 97.9566 1192.6 81.0184 1213.49 81.0184C1214.22 81.0184 1214.96 81.0341 1215.68 81.0806Z" stroke="white" stroke-width="0.640816"/>
<path d="M1291.69 58.9344L1291.69 58.9345C1284.94 69.2099 1273.29 75.9816 1260.07 75.9816C1246.86 75.9816 1235.23 69.1946 1228.45 58.934C1224.53 52.9716 1222.24 45.8264 1222.24 38.151C1222.24 17.2586 1239.18 0.320449 1260.07 0.320451C1280.97 0.320453 1297.9 17.2586 1297.9 38.151C1297.9 45.8266 1295.62 52.9719 1291.69 58.9344Z" stroke="white" stroke-width="0.640816"/>
<path d="M129.136 250.081L129.137 250.081C129.866 250.034 130.597 250.018 131.33 250.018C152.223 250.018 169.161 266.957 169.161 287.849C169.161 308.741 152.223 325.68 131.33 325.68C110.438 325.68 93.5 308.741 93.5156 287.849V287.849C93.5156 281.73 94.9634 275.955 97.5318 270.849C97.5319 270.849 97.5319 270.849 97.532 270.849L97.2458 270.705C98.2035 268.821 98.7373 266.685 98.7373 264.425C98.7373 256.7 92.473 250.436 84.7486 250.436C77.0242 250.436 70.7599 256.7 70.7599 264.425C70.7599 266.685 71.2937 268.821 72.2514 270.705C74.8419 275.87 76.302 281.679 76.302 287.849C76.302 308.918 59.2204 326 38.151 326C17.0816 326 0 308.918 0 287.849C0 266.78 17.0816 249.698 38.1039 249.698C38.8418 249.698 39.5797 249.714 40.3019 249.761L129.136 250.081ZM129.136 250.081C128.859 250.097 128.584 250.097 128.305 250.097H128.3C120.399 250.097 113.991 243.689 113.991 235.788C113.991 232.881 114.859 230.183 116.336 227.935L116.337 227.934C120.275 221.972 122.548 214.827 122.548 207.151C122.548 186.259 105.61 169.32 84.7172 169.32C63.8247 169.32 46.8866 186.259 46.8866 207.151C46.8866 214.826 49.175 221.972 53.0979 227.934L129.136 250.081Z" stroke="white" stroke-width="0.640816"/>
<path d="M222.315 250.081L222.313 250.081C208.459 250.875 196.611 259.109 190.695 270.848C188.126 275.97 186.678 281.73 186.678 287.849C186.678 308.741 203.616 325.68 224.509 325.68C245.401 325.68 262.339 308.741 262.339 287.849C262.339 266.957 245.401 250.018 224.509 250.018C223.775 250.018 223.044 250.034 222.315 250.081Z" stroke="white" stroke-width="0.640816"/>
<path d="M146.308 227.934L146.308 227.934C153.065 238.21 164.71 244.982 177.927 244.982C191.144 244.982 202.773 238.194 209.546 227.934C213.469 221.972 215.758 214.826 215.758 207.151C215.758 186.259 198.819 169.32 177.927 169.32C157.035 169.32 140.096 186.259 140.096 207.151C140.096 214.826 142.385 221.972 146.308 227.934Z" stroke="white" stroke-width="0.640816"/>
<path d="M368.592 244.919L368.591 244.919C367.862 244.966 367.131 244.982 366.397 244.982C345.505 244.982 328.567 228.043 328.567 207.151C328.567 186.259 345.505 169.32 366.397 169.32C387.29 169.32 404.228 186.259 404.212 207.151L404.212 207.151C404.212 213.27 402.764 219.045 400.196 224.151C400.196 224.151 400.196 224.151 400.196 224.151L400.482 224.295C399.524 226.179 398.991 228.315 398.991 230.575C398.991 238.3 405.255 244.564 412.979 244.564C420.704 244.564 426.968 238.3 426.968 230.575C426.968 228.315 426.434 226.179 425.476 224.295C422.886 219.13 421.426 213.321 421.426 207.151C421.426 186.082 438.507 169 459.577 169C480.646 169 497.728 186.082 497.728 207.151C497.728 228.22 480.646 245.302 459.624 245.302C458.886 245.302 458.148 245.286 457.426 245.239L368.592 244.919ZM368.592 244.919C368.869 244.903 369.143 244.903 369.423 244.903L369.427 244.903C377.329 244.903 383.737 251.311 383.737 259.212C383.737 262.119 382.869 264.817 381.392 267.065L381.391 267.066C377.453 273.028 375.18 280.173 375.18 287.849C375.18 308.741 392.118 325.68 413.011 325.68C433.903 325.68 450.841 308.741 450.841 287.849C450.841 280.174 448.553 273.028 444.63 267.066L368.592 244.919Z" stroke="white" stroke-width="0.640816"/>
<path d="M275.412 244.919L275.414 244.919C289.269 244.125 301.117 235.891 307.033 224.152C309.602 219.03 311.05 213.27 311.05 207.151C311.05 186.259 294.111 169.32 273.219 169.32C252.327 169.32 235.388 186.259 235.388 207.151C235.388 228.043 252.327 244.982 273.219 244.982C273.953 244.982 274.683 244.966 275.412 244.919Z" stroke="white" stroke-width="0.640816"/>
<path d="M351.42 267.066L351.42 267.066C344.663 256.79 333.018 250.018 319.801 250.018C306.584 250.018 294.954 256.805 288.181 267.066C284.259 273.028 281.97 280.174 281.97 287.849C281.97 308.741 298.908 325.68 319.801 325.68C340.693 325.68 357.631 308.741 357.631 287.849C357.631 280.173 355.343 273.028 351.42 267.066Z" stroke="white" stroke-width="0.640816"/>
<path d="M599.272 250.081L599.273 250.081C600.002 250.034 600.733 250.018 601.467 250.018C622.359 250.018 639.297 266.957 639.297 287.849C639.297 308.741 622.359 325.68 601.467 325.68C580.574 325.68 563.636 308.741 563.652 287.849V287.849C563.652 281.73 565.099 275.955 567.668 270.849C567.668 270.849 567.668 270.849 567.668 270.849L567.382 270.705C568.34 268.821 568.873 266.685 568.873 264.425C568.873 256.7 562.609 250.436 554.885 250.436C547.16 250.436 540.896 256.7 540.896 264.425C540.896 266.685 541.43 268.821 542.387 270.705C544.978 275.87 546.438 281.679 546.438 287.849C546.438 308.918 529.356 326 508.287 326C487.218 326 470.136 308.918 470.136 287.849C470.136 266.78 487.218 249.698 508.24 249.698C508.978 249.698 509.716 249.714 510.438 249.761L599.272 250.081ZM599.272 250.081C598.995 250.097 598.72 250.097 598.441 250.097H598.436C590.535 250.097 584.127 243.689 584.127 235.788C584.127 232.881 584.995 230.183 586.472 227.935L586.473 227.934C590.411 221.972 592.684 214.827 592.684 207.151C592.684 186.259 575.746 169.32 554.853 169.32C533.961 169.32 517.023 186.259 517.023 207.151C517.023 214.826 519.311 221.972 523.234 227.934L599.272 250.081Z" stroke="white" stroke-width="0.640816"/>
<path d="M692.452 250.081L692.449 250.081C678.595 250.875 666.747 259.109 660.831 270.848C658.262 275.97 656.814 281.73 656.814 287.849C656.814 308.741 673.752 325.68 694.645 325.68C715.537 325.68 732.475 308.741 732.475 287.849C732.475 266.957 715.537 250.018 694.645 250.018C693.911 250.018 693.181 250.034 692.452 250.081Z" stroke="white" stroke-width="0.640816"/>
<path d="M616.444 227.934L616.444 227.934C623.201 238.21 634.846 244.982 648.063 244.982C661.28 244.982 672.909 238.195 679.682 227.934C683.605 221.972 685.894 214.826 685.894 207.151C685.894 186.259 668.956 169.32 648.063 169.32C627.171 169.32 610.232 186.259 610.232 207.151C610.232 214.827 612.521 221.972 616.444 227.934Z" stroke="white" stroke-width="0.640816"/>
<path d="M838.728 244.919L838.727 244.919C837.998 244.966 837.267 244.982 836.533 244.982C815.641 244.982 798.703 228.043 798.703 207.151C798.703 186.259 815.641 169.32 836.533 169.32C857.426 169.32 874.364 186.259 874.348 207.151L874.348 207.151C874.348 213.27 872.9 219.045 870.332 224.151C870.332 224.151 870.332 224.151 870.332 224.151L870.618 224.295C869.66 226.179 869.127 228.315 869.127 230.575C869.127 238.3 875.391 244.564 883.115 244.564C890.84 244.564 897.104 238.3 897.104 230.575C897.104 228.315 896.57 226.179 895.612 224.295C893.022 219.13 891.562 213.321 891.562 207.151C891.562 186.082 908.643 169 929.713 169C950.782 169 967.864 186.082 967.864 207.151C967.864 228.22 950.782 245.302 929.76 245.302C929.022 245.302 928.284 245.286 927.562 245.239L838.728 244.919ZM838.728 244.919C839.005 244.903 839.279 244.903 839.559 244.903L839.563 244.903C847.465 244.903 853.873 251.311 853.873 259.212C853.873 262.119 853.005 264.817 851.528 267.065L851.527 267.066C847.589 273.028 845.316 280.173 845.316 287.849C845.316 308.741 862.254 325.68 883.147 325.68C904.039 325.68 920.977 308.741 920.977 287.849C920.977 280.174 918.689 273.028 914.766 267.066L838.728 244.919Z" stroke="white" stroke-width="0.640816"/>
<path d="M745.548 244.919L745.55 244.919C759.405 244.125 771.253 235.891 777.169 224.152C779.738 219.03 781.186 213.27 781.186 207.151C781.186 186.259 764.248 169.32 743.355 169.32C722.463 169.32 705.524 186.259 705.524 207.151C705.524 228.043 722.463 244.982 743.355 244.982C744.089 244.982 744.819 244.966 745.548 244.919Z" stroke="white" stroke-width="0.640816"/>
<path d="M821.556 267.066L821.556 267.066C814.799 256.79 803.154 250.018 789.937 250.018C776.72 250.018 765.09 256.805 758.318 267.066C754.395 273.028 752.106 280.174 752.106 287.849C752.106 308.741 769.044 325.68 789.937 325.68C810.829 325.68 827.767 308.741 827.767 287.849C827.767 280.173 825.479 273.028 821.556 267.066Z" stroke="white" stroke-width="0.640816"/>
<path d="M1069.41 250.081L1069.41 250.081C1070.14 250.034 1070.87 250.018 1071.6 250.018C1092.5 250.018 1109.43 266.957 1109.43 287.849C1109.43 308.741 1092.5 325.68 1071.6 325.68C1050.71 325.68 1033.77 308.741 1033.79 287.849V287.849C1033.79 281.73 1035.24 275.955 1037.8 270.849C1037.8 270.849 1037.8 270.849 1037.8 270.849L1037.52 270.705C1038.48 268.821 1039.01 266.685 1039.01 264.425C1039.01 256.7 1032.75 250.436 1025.02 250.436C1017.3 250.436 1011.03 256.7 1011.03 264.425C1011.03 266.685 1011.57 268.821 1012.52 270.705C1015.11 275.87 1016.57 281.679 1016.57 287.849C1016.57 308.918 999.492 326 978.423 326C957.354 326 940.272 308.918 940.272 287.849C940.272 266.78 957.354 249.698 978.376 249.698C979.114 249.698 979.852 249.714 980.574 249.761L1069.41 250.081ZM1069.41 250.081C1069.13 250.097 1068.86 250.097 1068.58 250.097H1068.57C1060.67 250.097 1054.26 243.689 1054.26 235.788C1054.26 232.881 1055.13 230.183 1056.61 227.935L1056.61 227.934C1060.55 221.972 1062.82 214.827 1062.82 207.151C1062.82 186.259 1045.88 169.32 1024.99 169.32C1004.1 169.32 987.159 186.259 987.159 207.151C987.159 214.826 989.447 221.972 993.37 227.934L1069.41 250.081Z" stroke="white" stroke-width="0.640816"/>
<path d="M1162.59 250.081L1162.59 250.081C1148.73 250.875 1136.88 259.109 1130.97 270.848C1128.4 275.97 1126.95 281.73 1126.95 287.849C1126.95 308.741 1143.89 325.68 1164.78 325.68C1185.67 325.68 1202.61 308.741 1202.61 287.849C1202.61 266.957 1185.67 250.018 1164.78 250.018C1164.05 250.018 1163.32 250.034 1162.59 250.081Z" stroke="white" stroke-width="0.640816"/>
<path d="M1086.58 227.934L1086.58 227.934C1093.34 238.21 1104.98 244.982 1118.2 244.982C1131.42 244.982 1143.05 238.195 1149.82 227.934C1153.74 221.972 1156.03 214.826 1156.03 207.151C1156.03 186.259 1139.09 169.32 1118.2 169.32C1097.31 169.32 1080.37 186.259 1080.37 207.151C1080.37 214.827 1082.66 221.972 1086.58 227.934Z" stroke="white" stroke-width="0.640816"/>
<path d="M1308.86 244.919L1308.86 244.919C1308.13 244.966 1307.4 244.982 1306.67 244.982C1285.78 244.982 1268.84 228.043 1268.84 207.151C1268.84 186.259 1285.78 169.32 1306.67 169.32C1327.56 169.32 1344.5 186.259 1344.48 207.151L1344.48 207.151C1344.48 213.27 1343.04 219.045 1340.47 224.151C1340.47 224.151 1340.47 224.151 1340.47 224.151L1340.75 224.295C1339.8 226.179 1339.26 228.315 1339.26 230.575C1339.26 238.3 1345.53 244.564 1353.25 244.564C1360.98 244.564 1367.24 238.3 1367.24 230.575C1367.24 228.315 1366.71 226.179 1365.75 224.295C1363.16 219.13 1361.7 213.321 1361.7 207.151C1361.7 186.082 1378.78 169 1399.85 169C1420.92 169 1438 186.082 1438 207.151C1438 228.22 1420.92 245.302 1399.9 245.302C1399.16 245.302 1398.42 245.286 1397.7 245.239L1308.86 244.919ZM1308.86 244.919C1309.14 244.903 1309.42 244.903 1309.7 244.903L1309.7 244.903C1317.6 244.903 1324.01 251.311 1324.01 259.212C1324.01 262.119 1323.14 264.817 1321.66 267.065L1321.66 267.066C1317.73 273.028 1315.45 280.173 1315.45 287.849C1315.45 308.741 1332.39 325.68 1353.28 325.68C1374.18 325.68 1391.11 308.741 1391.11 287.849C1391.11 280.174 1388.83 273.028 1384.9 267.066L1308.86 244.919Z" stroke="white" stroke-width="0.640816"/>
<path d="M1215.68 244.919L1215.69 244.919C1229.54 244.125 1241.39 235.891 1247.31 224.152C1249.87 219.03 1251.32 213.27 1251.32 207.151C1251.32 186.259 1234.38 169.32 1213.49 169.32C1192.6 169.32 1175.66 186.259 1175.66 207.151C1175.66 228.043 1192.6 244.982 1213.49 244.982C1214.22 244.982 1214.96 244.966 1215.68 244.919Z" stroke="white" stroke-width="0.640816"/>
<path d="M1291.69 267.066L1291.69 267.066C1284.94 256.79 1273.29 250.018 1260.07 250.018C1246.86 250.018 1235.23 256.805 1228.45 267.066C1224.53 273.028 1222.24 280.174 1222.24 287.849C1222.24 308.741 1239.18 325.68 1260.07 325.68C1280.97 325.68 1297.9 308.741 1297.9 287.849C1297.9 280.173 1295.62 273.028 1291.69 267.066Z" stroke="white" stroke-width="0.640816"/>
<path d="M129.136 413.919L129.137 413.919C129.866 413.966 130.597 413.982 131.33 413.982C152.223 413.982 169.161 397.043 169.161 376.151C169.161 355.259 152.223 338.32 131.33 338.32C110.438 338.32 93.5 355.259 93.5156 376.151V376.151C93.5156 382.27 94.9634 388.045 97.5318 393.151C97.5319 393.151 97.5319 393.151 97.532 393.151L97.2458 393.295C98.2035 395.179 98.7373 397.315 98.7373 399.575C98.7373 407.3 92.473 413.564 84.7486 413.564C77.0242 413.564 70.7599 407.3 70.7599 399.575C70.7599 397.315 71.2937 395.179 72.2514 393.295C74.8419 388.13 76.302 382.321 76.302 376.151C76.302 355.082 59.2204 338 38.151 338C17.0816 338 0 355.082 0 376.151C0 397.22 17.0816 414.302 38.1039 414.302C38.8418 414.302 39.5797 414.286 40.3019 414.239L129.136 413.919ZM129.136 413.919C128.859 413.903 128.584 413.903 128.305 413.903H128.3C120.399 413.903 113.991 420.311 113.991 428.212C113.991 431.119 114.859 433.817 116.336 436.065L116.337 436.066C120.275 442.028 122.548 449.173 122.548 456.849C122.548 477.741 105.61 494.68 84.7172 494.68C63.8247 494.68 46.8866 477.741 46.8866 456.849C46.8866 449.174 49.175 442.028 53.0979 436.066L129.136 413.919Z" stroke="white" stroke-width="0.640816"/>
<path d="M222.315 413.919L222.313 413.919C208.459 413.125 196.611 404.891 190.695 393.152C188.126 388.03 186.678 382.27 186.678 376.151C186.678 355.259 203.616 338.32 224.509 338.32C245.401 338.32 262.339 355.259 262.339 376.151C262.339 397.043 245.401 413.982 224.509 413.982C223.775 413.982 223.044 413.966 222.315 413.919Z" stroke="white" stroke-width="0.640816"/>
<path d="M146.308 436.066L146.308 436.066C153.065 425.79 164.71 419.018 177.927 419.018C191.144 419.018 202.773 425.805 209.546 436.066C213.469 442.028 215.758 449.174 215.758 456.849C215.758 477.741 198.819 494.68 177.927 494.68C157.035 494.68 140.096 477.741 140.096 456.849C140.096 449.173 142.385 442.028 146.308 436.066Z" stroke="white" stroke-width="0.640816"/>
<path d="M368.592 419.081L368.591 419.081C367.862 419.034 367.131 419.018 366.397 419.018C345.505 419.018 328.567 435.957 328.567 456.849C328.567 477.741 345.505 494.68 366.397 494.68C387.29 494.68 404.228 477.741 404.212 456.849L404.212 456.849C404.212 450.73 402.764 444.955 400.196 439.849C400.196 439.849 400.196 439.849 400.196 439.849L400.482 439.705C399.524 437.821 398.991 435.685 398.991 433.425C398.991 425.7 405.255 419.436 412.979 419.436C420.704 419.436 426.968 425.7 426.968 433.425C426.968 435.685 426.434 437.821 425.476 439.705C422.886 444.87 421.426 450.679 421.426 456.849C421.426 477.918 438.507 495 459.577 495C480.646 495 497.728 477.918 497.728 456.849C497.728 435.78 480.646 418.698 459.624 418.698C458.886 418.698 458.148 418.714 457.426 418.761L368.592 419.081ZM368.592 419.081C368.869 419.097 369.143 419.097 369.423 419.097L369.427 419.097C377.329 419.097 383.737 412.689 383.737 404.788C383.737 401.881 382.869 399.183 381.392 396.935L381.391 396.934C377.453 390.972 375.18 383.827 375.18 376.151C375.18 355.259 392.118 338.32 413.011 338.32C433.903 338.32 450.841 355.259 450.841 376.151C450.841 383.826 448.553 390.972 444.63 396.934L368.592 419.081Z" stroke="white" stroke-width="0.640816"/>
<path d="M275.412 419.081L275.414 419.081C289.269 419.875 301.117 428.109 307.033 439.848C309.602 444.97 311.05 450.73 311.05 456.849C311.05 477.741 294.111 494.68 273.219 494.68C252.327 494.68 235.388 477.741 235.388 456.849C235.388 435.957 252.327 419.018 273.219 419.018C273.953 419.018 274.683 419.034 275.412 419.081Z" stroke="white" stroke-width="0.640816"/>
<path d="M351.42 396.934L351.42 396.934C344.663 407.21 333.018 413.982 319.801 413.982C306.584 413.982 294.954 407.195 288.181 396.934C284.259 390.972 281.97 383.826 281.97 376.151C281.97 355.259 298.908 338.32 319.801 338.32C340.693 338.32 357.631 355.259 357.631 376.151C357.631 383.827 355.343 390.972 351.42 396.934Z" stroke="white" stroke-width="0.640816"/>
<path d="M599.272 413.919L599.273 413.919C600.002 413.966 600.733 413.982 601.467 413.982C622.359 413.982 639.297 397.043 639.297 376.151C639.297 355.259 622.359 338.32 601.467 338.32C580.574 338.32 563.636 355.259 563.652 376.151V376.151C563.652 382.27 565.099 388.045 567.668 393.151C567.668 393.151 567.668 393.151 567.668 393.151L567.382 393.295C568.34 395.179 568.873 397.315 568.873 399.575C568.873 407.3 562.609 413.564 554.885 413.564C547.16 413.564 540.896 407.3 540.896 399.575C540.896 397.315 541.43 395.179 542.387 393.295C544.978 388.13 546.438 382.321 546.438 376.151C546.438 355.082 529.356 338 508.287 338C487.218 338 470.136 355.082 470.136 376.151C470.136 397.22 487.218 414.302 508.24 414.302C508.978 414.302 509.716 414.286 510.438 414.239L599.272 413.919ZM599.272 413.919C598.995 413.903 598.72 413.903 598.441 413.903H598.436C590.535 413.903 584.127 420.311 584.127 428.212C584.127 431.119 584.995 433.817 586.472 436.065L586.473 436.066C590.411 442.028 592.684 449.173 592.684 456.849C592.684 477.741 575.746 494.68 554.853 494.68C533.961 494.68 517.023 477.741 517.023 456.849C517.023 449.174 519.311 442.028 523.234 436.066L599.272 413.919Z" stroke="white" stroke-width="0.640816"/>
<path d="M692.452 413.919L692.449 413.919C678.595 413.125 666.747 404.891 660.831 393.152C658.262 388.03 656.814 382.27 656.814 376.151C656.814 355.259 673.752 338.32 694.645 338.32C715.537 338.32 732.475 355.259 732.475 376.151C732.475 397.043 715.537 413.982 694.645 413.982C693.911 413.982 693.181 413.966 692.452 413.919Z" stroke="white" stroke-width="0.640816"/>
<path d="M616.444 436.066L616.444 436.066C623.201 425.79 634.846 419.018 648.063 419.018C661.28 419.018 672.909 425.805 679.682 436.066C683.605 442.028 685.894 449.174 685.894 456.849C685.894 477.741 668.956 494.68 648.063 494.68C627.171 494.68 610.232 477.741 610.232 456.849C610.232 449.173 612.521 442.028 616.444 436.066Z" stroke="white" stroke-width="0.640816"/>
<path d="M838.728 419.081L838.727 419.081C837.998 419.034 837.267 419.018 836.533 419.018C815.641 419.018 798.703 435.957 798.703 456.849C798.703 477.741 815.641 494.68 836.533 494.68C857.426 494.68 874.364 477.741 874.348 456.849L874.348 456.849C874.348 450.73 872.9 444.955 870.332 439.849C870.332 439.849 870.332 439.849 870.332 439.849L870.618 439.705C869.66 437.821 869.127 435.685 869.127 433.425C869.127 425.7 875.391 419.436 883.115 419.436C890.84 419.436 897.104 425.7 897.104 433.425C897.104 435.685 896.57 437.821 895.612 439.705C893.022 444.87 891.562 450.679 891.562 456.849C891.562 477.918 908.643 495 929.713 495C950.782 495 967.864 477.918 967.864 456.849C967.864 435.78 950.782 418.698 929.76 418.698C929.022 418.698 928.284 418.714 927.562 418.761L838.728 419.081ZM838.728 419.081C839.005 419.097 839.279 419.097 839.559 419.097L839.563 419.097C847.465 419.097 853.873 412.689 853.873 404.788C853.873 401.881 853.005 399.183 851.528 396.935L851.527 396.934C847.589 390.972 845.316 383.827 845.316 376.151C845.316 355.259 862.254 338.32 883.147 338.32C904.039 338.32 920.977 355.259 920.977 376.151C920.977 383.826 918.689 390.972 914.766 396.934L838.728 419.081Z" stroke="white" stroke-width="0.640816"/>
<path d="M745.548 419.081L745.55 419.081C759.405 419.875 771.253 428.109 777.169 439.848C779.738 444.97 781.186 450.73 781.186 456.849C781.186 477.741 764.248 494.68 743.355 494.68C722.463 494.68 705.524 477.741 705.524 456.849C705.524 435.957 722.463 419.018 743.355 419.018C744.089 419.018 744.819 419.034 745.548 419.081Z" stroke="white" stroke-width="0.640816"/>
<path d="M821.556 396.934L821.556 396.934C814.799 407.21 803.154 413.982 789.937 413.982C776.72 413.982 765.09 407.195 758.318 396.934C754.395 390.972 752.106 383.826 752.106 376.151C752.106 355.259 769.044 338.32 789.937 338.32C810.829 338.32 827.767 355.259 827.767 376.151C827.767 383.827 825.479 390.972 821.556 396.934Z" stroke="white" stroke-width="0.640816"/>
<path d="M1069.41 413.919L1069.41 413.919C1070.14 413.966 1070.87 413.982 1071.6 413.982C1092.5 413.982 1109.43 397.043 1109.43 376.151C1109.43 355.259 1092.5 338.32 1071.6 338.32C1050.71 338.32 1033.77 355.259 1033.79 376.151V376.151C1033.79 382.27 1035.24 388.045 1037.8 393.151C1037.8 393.151 1037.8 393.151 1037.8 393.151L1037.52 393.295C1038.48 395.179 1039.01 397.315 1039.01 399.575C1039.01 407.3 1032.75 413.564 1025.02 413.564C1017.3 413.564 1011.03 407.3 1011.03 399.575C1011.03 397.315 1011.57 395.179 1012.52 393.295C1015.11 388.13 1016.57 382.321 1016.57 376.151C1016.57 355.082 999.492 338 978.423 338C957.354 338 940.272 355.082 940.272 376.151C940.272 397.22 957.354 414.302 978.376 414.302C979.114 414.302 979.852 414.286 980.574 414.239L1069.41 413.919ZM1069.41 413.919C1069.13 413.903 1068.86 413.903 1068.58 413.903H1068.57C1060.67 413.903 1054.26 420.311 1054.26 428.212C1054.26 431.119 1055.13 433.817 1056.61 436.065L1056.61 436.066C1060.55 442.028 1062.82 449.173 1062.82 456.849C1062.82 477.741 1045.88 494.68 1024.99 494.68C1004.1 494.68 987.159 477.741 987.159 456.849C987.159 449.174 989.447 442.028 993.37 436.066L1069.41 413.919Z" stroke="white" stroke-width="0.640816"/>
<path d="M1162.59 413.919L1162.59 413.919C1148.73 413.125 1136.88 404.891 1130.97 393.152C1128.4 388.03 1126.95 382.27 1126.95 376.151C1126.95 355.259 1143.89 338.32 1164.78 338.32C1185.67 338.32 1202.61 355.259 1202.61 376.151C1202.61 397.043 1185.67 413.982 1164.78 413.982C1164.05 413.982 1163.32 413.966 1162.59 413.919Z" stroke="white" stroke-width="0.640816"/>
<path d="M1086.58 436.066L1086.58 436.066C1093.34 425.79 1104.98 419.018 1118.2 419.018C1131.42 419.018 1143.05 425.805 1149.82 436.066C1153.74 442.028 1156.03 449.174 1156.03 456.849C1156.03 477.741 1139.09 494.68 1118.2 494.68C1097.31 494.68 1080.37 477.741 1080.37 456.849C1080.37 449.173 1082.66 442.028 1086.58 436.066Z" stroke="white" stroke-width="0.640816"/>
<path d="M1308.86 419.081L1308.86 419.081C1308.13 419.034 1307.4 419.018 1306.67 419.018C1285.78 419.018 1268.84 435.957 1268.84 456.849C1268.84 477.741 1285.78 494.68 1306.67 494.68C1327.56 494.68 1344.5 477.741 1344.48 456.849L1344.48 456.849C1344.48 450.73 1343.04 444.955 1340.47 439.849C1340.47 439.849 1340.47 439.849 1340.47 439.849L1340.75 439.705C1339.8 437.821 1339.26 435.685 1339.26 433.425C1339.26 425.7 1345.53 419.436 1353.25 419.436C1360.98 419.436 1367.24 425.7 1367.24 433.425C1367.24 435.685 1366.71 437.821 1365.75 439.705C1363.16 444.87 1361.7 450.679 1361.7 456.849C1361.7 477.918 1378.78 495 1399.85 495C1420.92 495 1438 477.918 1438 456.849C1438 435.78 1420.92 418.698 1399.9 418.698C1399.16 418.698 1398.42 418.714 1397.7 418.761L1308.86 419.081ZM1308.86 419.081C1309.14 419.097 1309.42 419.097 1309.7 419.097L1309.7 419.097C1317.6 419.097 1324.01 412.689 1324.01 404.788C1324.01 401.881 1323.14 399.183 1321.66 396.935L1321.66 396.934C1317.73 390.972 1315.45 383.827 1315.45 376.151C1315.45 355.259 1332.39 338.32 1353.28 338.32C1374.18 338.32 1391.11 355.259 1391.11 376.151C1391.11 383.826 1388.83 390.972 1384.9 396.934L1308.86 419.081Z" stroke="white" stroke-width="0.640816"/>
<path d="M1215.68 419.081L1215.69 419.081C1229.54 419.875 1241.39 428.109 1247.31 439.848C1249.87 444.97 1251.32 450.73 1251.32 456.849C1251.32 477.741 1234.38 494.68 1213.49 494.68C1192.6 494.68 1175.66 477.741 1175.66 456.849C1175.66 435.957 1192.6 419.018 1213.49 419.018C1214.22 419.018 1214.96 419.034 1215.68 419.081Z" stroke="white" stroke-width="0.640816"/>
<path d="M1291.69 396.934L1291.69 396.934C1284.94 407.21 1273.29 413.982 1260.07 413.982C1246.86 413.982 1235.23 407.195 1228.45 396.934C1224.53 390.972 1222.24 383.826 1222.24 376.151C1222.24 355.259 1239.18 338.32 1260.07 338.32C1280.97 338.32 1297.9 355.259 1297.9 376.151C1297.9 383.827 1295.62 390.972 1291.69 396.934Z" stroke="white" stroke-width="0.640816"/>
<path d="M129.136 588.081L129.137 588.081C129.866 588.034 130.597 588.018 131.33 588.018C152.223 588.018 169.161 604.956 169.161 625.849C169.161 646.741 152.223 663.68 131.33 663.68C110.438 663.68 93.5 646.741 93.5156 625.849V625.849C93.5156 619.73 94.9634 613.955 97.5318 608.849C97.5319 608.849 97.5319 608.849 97.532 608.849L97.2458 608.705C98.2035 606.821 98.7373 604.685 98.7373 602.425C98.7373 594.7 92.473 588.436 84.7486 588.436C77.0242 588.436 70.7599 594.7 70.7599 602.425C70.7599 604.685 71.2937 606.821 72.2514 608.705C74.8419 613.87 76.302 619.679 76.302 625.849C76.302 646.918 59.2204 664 38.151 664C17.0816 664 0 646.918 0 625.849C0 604.78 17.0816 587.698 38.1039 587.698C38.8418 587.698 39.5797 587.714 40.3019 587.761L129.136 588.081ZM129.136 588.081C128.859 588.097 128.584 588.097 128.305 588.097H128.3C120.399 588.097 113.991 581.689 113.991 573.788C113.991 570.881 114.859 568.183 116.336 565.934L116.337 565.934C120.275 559.972 122.548 552.827 122.548 545.151C122.548 524.259 105.61 507.32 84.7172 507.32C63.8247 507.32 46.8866 524.259 46.8866 545.151C46.8866 552.826 49.175 559.972 53.0979 565.934L129.136 588.081Z" stroke="white" stroke-width="0.640816"/>
<path d="M222.315 588.081L222.313 588.081C208.459 588.875 196.611 597.109 190.695 608.848C188.126 613.97 186.678 619.73 186.678 625.849C186.678 646.741 203.616 663.68 224.509 663.68C245.401 663.68 262.339 646.741 262.339 625.849C262.339 604.957 245.401 588.018 224.509 588.018C223.775 588.018 223.044 588.034 222.315 588.081Z" stroke="white" stroke-width="0.640816"/>
<path d="M146.308 565.934L146.308 565.934C153.065 576.21 164.71 582.982 177.927 582.982C191.144 582.982 202.773 576.194 209.546 565.934C213.469 559.972 215.758 552.826 215.758 545.151C215.758 524.258 198.819 507.32 177.927 507.32C157.035 507.32 140.096 524.258 140.096 545.151C140.096 552.826 142.385 559.972 146.308 565.934Z" stroke="white" stroke-width="0.640816"/>
<path d="M368.592 582.919L368.591 582.919C367.862 582.966 367.131 582.982 366.397 582.982C345.505 582.982 328.567 566.043 328.567 545.151C328.567 524.259 345.505 507.32 366.397 507.32C387.29 507.32 404.228 524.258 404.212 545.151L404.212 545.151C404.212 551.27 402.764 557.045 400.196 562.151C400.196 562.151 400.196 562.151 400.196 562.151L400.482 562.295C399.524 564.179 398.99 566.315 398.99 568.575C398.99 576.3 405.255 582.564 412.979 582.564C420.704 582.564 426.968 576.3 426.968 568.575C426.968 566.315 426.434 564.179 425.476 562.295C422.886 557.13 421.426 551.321 421.426 545.151C421.426 524.082 438.507 507 459.577 507C480.646 507 497.728 524.082 497.728 545.151C497.728 566.22 480.646 583.302 459.624 583.302C458.886 583.302 458.148 583.286 457.426 583.239L368.592 582.919ZM368.592 582.919C368.869 582.903 369.143 582.903 369.423 582.903L369.427 582.903C377.329 582.903 383.737 589.311 383.737 597.212C383.737 600.119 382.869 602.817 381.392 605.065L381.391 605.066C377.453 611.028 375.18 618.173 375.18 625.849C375.18 646.741 392.118 663.68 413.011 663.68C433.903 663.68 450.841 646.741 450.841 625.849C450.841 618.174 448.553 611.028 444.63 605.066L368.592 582.919Z" stroke="white" stroke-width="0.640816"/>
<path d="M275.412 582.919L275.414 582.919C289.269 582.125 301.117 573.89 307.033 562.152C309.602 557.03 311.05 551.27 311.05 545.151C311.05 524.258 294.111 507.32 273.219 507.32C252.327 507.32 235.388 524.258 235.388 545.151C235.388 566.043 252.327 582.982 273.219 582.982C273.953 582.982 274.683 582.966 275.412 582.919Z" stroke="white" stroke-width="0.640816"/>
<path d="M351.42 605.066L351.42 605.065C344.663 594.79 333.018 588.018 319.801 588.018C306.584 588.018 294.954 594.805 288.181 605.066C284.259 611.028 281.97 618.174 281.97 625.849C281.97 646.741 298.908 663.68 319.801 663.68C340.693 663.68 357.631 646.741 357.631 625.849C357.631 618.173 355.343 611.028 351.42 605.066Z" stroke="white" stroke-width="0.640816"/>
<path d="M599.272 588.081L599.273 588.081C600.002 588.034 600.733 588.018 601.467 588.018C622.359 588.018 639.297 604.957 639.297 625.849C639.297 646.741 622.359 663.68 601.467 663.68C580.574 663.68 563.636 646.741 563.652 625.849V625.849C563.652 619.73 565.099 613.955 567.668 608.849C567.668 608.849 567.668 608.849 567.668 608.849L567.382 608.705C568.34 606.821 568.873 604.685 568.873 602.425C568.873 594.7 562.609 588.436 554.885 588.436C547.16 588.436 540.896 594.7 540.896 602.425C540.896 604.685 541.43 606.821 542.387 608.705C544.978 613.87 546.438 619.679 546.438 625.849C546.438 646.918 529.356 664 508.287 664C487.218 664 470.136 646.918 470.136 625.849C470.136 604.78 487.218 587.698 508.24 587.698C508.978 587.698 509.716 587.714 510.438 587.761L599.272 588.081ZM599.272 588.081C598.995 588.097 598.72 588.097 598.441 588.097H598.436C590.535 588.097 584.127 581.689 584.127 573.788C584.127 570.881 584.995 568.183 586.472 565.935L586.473 565.934C590.411 559.972 592.684 552.827 592.684 545.151C592.684 524.259 575.746 507.32 554.853 507.32C533.961 507.32 517.023 524.259 517.023 545.151C517.023 552.826 519.311 559.972 523.234 565.934L599.272 588.081Z" stroke="white" stroke-width="0.640816"/>
<path d="M692.452 588.081L692.449 588.081C678.595 588.875 666.747 597.109 660.831 608.848C658.262 613.97 656.814 619.73 656.814 625.849C656.814 646.741 673.752 663.68 694.645 663.68C715.537 663.68 732.475 646.741 732.475 625.849C732.475 604.957 715.537 588.018 694.645 588.018C693.911 588.018 693.181 588.034 692.452 588.081Z" stroke="white" stroke-width="0.640816"/>
<path d="M616.444 565.934L616.444 565.934C623.201 576.21 634.846 582.982 648.063 582.982C661.28 582.982 672.909 576.195 679.682 565.934C683.605 559.972 685.894 552.826 685.894 545.151C685.894 524.259 668.956 507.32 648.063 507.32C627.171 507.32 610.232 524.259 610.232 545.151C610.232 552.826 612.521 559.972 616.444 565.934Z" stroke="white" stroke-width="0.640816"/>
<path d="M838.728 582.919L838.727 582.919C837.998 582.966 837.267 582.982 836.533 582.982C815.641 582.982 798.703 566.043 798.703 545.151C798.703 524.259 815.641 507.32 836.533 507.32C857.426 507.32 874.364 524.258 874.348 545.151L874.348 545.151C874.348 551.27 872.9 557.045 870.332 562.151C870.332 562.151 870.332 562.151 870.332 562.151L870.618 562.295C869.66 564.179 869.127 566.315 869.127 568.575C869.127 576.3 875.391 582.564 883.115 582.564C890.84 582.564 897.104 576.3 897.104 568.575C897.104 566.315 896.57 564.179 895.612 562.295C893.022 557.13 891.562 551.321 891.562 545.151C891.562 524.082 908.643 507 929.713 507C950.782 507 967.864 524.082 967.864 545.151C967.864 566.22 950.782 583.302 929.76 583.302C929.022 583.302 928.284 583.286 927.562 583.239L838.728 582.919ZM838.728 582.919C839.005 582.903 839.279 582.903 839.559 582.903L839.563 582.903C847.465 582.903 853.873 589.311 853.873 597.212C853.873 600.118 853.005 602.817 851.528 605.065L851.527 605.066C847.589 611.028 845.316 618.173 845.316 625.849C845.316 646.741 862.254 663.68 883.147 663.68C904.039 663.68 920.977 646.741 920.977 625.849C920.977 618.174 918.689 611.028 914.766 605.066L838.728 582.919Z" stroke="white" stroke-width="0.640816"/>
<path d="M745.548 582.919L745.55 582.919C759.405 582.125 771.253 573.89 777.169 562.152C779.738 557.03 781.186 551.27 781.186 545.151C781.186 524.259 764.248 507.32 743.355 507.32C722.463 507.32 705.524 524.259 705.524 545.151C705.524 566.043 722.463 582.982 743.355 582.982C744.089 582.982 744.819 582.966 745.548 582.919Z" stroke="white" stroke-width="0.640816"/>
<path d="M821.556 605.066L821.556 605.065C814.799 594.79 803.154 588.018 789.937 588.018C776.72 588.018 765.09 594.805 758.318 605.066C754.395 611.028 752.106 618.174 752.106 625.849C752.106 646.741 769.044 663.68 789.937 663.68C810.829 663.68 827.767 646.741 827.767 625.849C827.767 618.173 825.479 611.028 821.556 605.066Z" stroke="white" stroke-width="0.640816"/>
<path d="M1069.41 588.081L1069.41 588.081C1070.14 588.034 1070.87 588.018 1071.6 588.018C1092.5 588.018 1109.43 604.957 1109.43 625.849C1109.43 646.741 1092.5 663.68 1071.6 663.68C1050.71 663.68 1033.77 646.741 1033.79 625.849V625.849C1033.79 619.73 1035.24 613.955 1037.8 608.849C1037.8 608.849 1037.8 608.849 1037.8 608.849L1037.52 608.705C1038.48 606.821 1039.01 604.685 1039.01 602.425C1039.01 594.7 1032.75 588.436 1025.02 588.436C1017.3 588.436 1011.03 594.7 1011.03 602.425C1011.03 604.685 1011.57 606.821 1012.52 608.705C1015.11 613.87 1016.57 619.679 1016.57 625.849C1016.57 646.918 999.492 664 978.423 664C957.354 664 940.272 646.918 940.272 625.849C940.272 604.78 957.354 587.698 978.376 587.698C979.114 587.698 979.852 587.714 980.574 587.761L1069.41 588.081ZM1069.41 588.081C1069.13 588.097 1068.86 588.097 1068.58 588.097H1068.57C1060.67 588.097 1054.26 581.689 1054.26 573.788C1054.26 570.881 1055.13 568.183 1056.61 565.935L1056.61 565.934C1060.55 559.972 1062.82 552.827 1062.82 545.151C1062.82 524.259 1045.88 507.32 1024.99 507.32C1004.1 507.32 987.159 524.259 987.159 545.151C987.159 552.826 989.447 559.972 993.37 565.934L1069.41 588.081Z" stroke="white" stroke-width="0.640816"/>
<path d="M1162.59 588.081L1162.59 588.081C1148.73 588.875 1136.88 597.109 1130.97 608.848C1128.4 613.97 1126.95 619.73 1126.95 625.849C1126.95 646.741 1143.89 663.68 1164.78 663.68C1185.67 663.68 1202.61 646.741 1202.61 625.849C1202.61 604.957 1185.67 588.018 1164.78 588.018C1164.05 588.018 1163.32 588.034 1162.59 588.081Z" stroke="white" stroke-width="0.640816"/>
<path d="M1086.58 565.934L1086.58 565.934C1093.34 576.21 1104.98 582.982 1118.2 582.982C1131.42 582.982 1143.05 576.195 1149.82 565.934C1153.74 559.972 1156.03 552.826 1156.03 545.151C1156.03 524.259 1139.09 507.32 1118.2 507.32C1097.31 507.32 1080.37 524.259 1080.37 545.151C1080.37 552.826 1082.66 559.972 1086.58 565.934Z" stroke="white" stroke-width="0.640816"/>
<path d="M1308.86 582.919L1308.86 582.919C1308.13 582.966 1307.4 582.982 1306.67 582.982C1285.78 582.982 1268.84 566.043 1268.84 545.151C1268.84 524.259 1285.78 507.32 1306.67 507.32C1327.56 507.32 1344.5 524.259 1344.48 545.151L1344.48 545.151C1344.48 551.27 1343.04 557.045 1340.47 562.151C1340.47 562.151 1340.47 562.151 1340.47 562.151L1340.75 562.295C1339.8 564.179 1339.26 566.315 1339.26 568.575C1339.26 576.3 1345.53 582.564 1353.25 582.564C1360.98 582.564 1367.24 576.3 1367.24 568.575C1367.24 566.315 1366.71 564.179 1365.75 562.295C1363.16 557.13 1361.7 551.321 1361.7 545.151C1361.7 524.082 1378.78 507 1399.85 507C1420.92 507 1438 524.082 1438 545.151C1438 566.22 1420.92 583.302 1399.9 583.302C1399.16 583.302 1398.42 583.286 1397.7 583.239L1308.86 582.919ZM1308.86 582.919C1309.14 582.903 1309.42 582.903 1309.7 582.903L1309.7 582.903C1317.6 582.903 1324.01 589.311 1324.01 597.212C1324.01 600.119 1323.14 602.817 1321.66 605.065L1321.66 605.066C1317.73 611.028 1315.45 618.173 1315.45 625.849C1315.45 646.741 1332.39 663.68 1353.28 663.68C1374.18 663.68 1391.11 646.741 1391.11 625.849C1391.11 618.174 1388.83 611.028 1384.9 605.066L1308.86 582.919Z" stroke="white" stroke-width="0.640816"/>
<path d="M1215.68 582.919L1215.69 582.919C1229.54 582.125 1241.39 573.89 1247.31 562.152C1249.87 557.03 1251.32 551.27 1251.32 545.151C1251.32 524.258 1234.38 507.32 1213.49 507.32C1192.6 507.32 1175.66 524.258 1175.66 545.151C1175.66 566.043 1192.6 582.982 1213.49 582.982C1214.22 582.982 1214.96 582.966 1215.68 582.919Z" stroke="white" stroke-width="0.640816"/>
<path d="M1291.69 605.066L1291.69 605.065C1284.94 594.79 1273.29 588.018 1260.07 588.018C1246.86 588.018 1235.23 594.805 1228.45 605.066C1224.53 611.028 1222.24 618.174 1222.24 625.849C1222.24 646.741 1239.18 663.68 1260.07 663.68C1280.97 663.68 1297.9 646.741 1297.9 625.849C1297.9 618.173 1295.62 611.028 1291.69 605.066Z" stroke="white" stroke-width="0.640816"/>
<path d="M129.136 751.919L129.137 751.919C129.866 751.966 130.597 751.982 131.33 751.982C152.223 751.982 169.161 735.043 169.161 714.151C169.161 693.259 152.223 676.32 131.33 676.32C110.438 676.32 93.5 693.259 93.5156 714.151V714.151C93.5156 720.27 94.9634 726.045 97.5318 731.151C97.5319 731.151 97.5319 731.151 97.532 731.151L97.2458 731.295C98.2035 733.179 98.7373 735.315 98.7373 737.575C98.7373 745.3 92.473 751.564 84.7486 751.564C77.0242 751.564 70.7599 745.3 70.7599 737.575C70.7599 735.315 71.2937 733.179 72.2514 731.295C74.8419 726.13 76.302 720.321 76.302 714.151C76.302 693.082 59.2204 676 38.151 676C17.0816 676 0 693.082 0 714.151C0 735.22 17.0816 752.302 38.1039 752.302C38.8418 752.302 39.5797 752.286 40.3019 752.239L129.136 751.919ZM129.136 751.919C128.859 751.903 128.584 751.903 128.305 751.903H128.3C120.399 751.903 113.991 758.311 113.991 766.212C113.991 769.119 114.859 771.817 116.336 774.065L116.337 774.066C120.275 780.028 122.548 787.173 122.548 794.849C122.548 815.741 105.61 832.68 84.7172 832.68C63.8247 832.68 46.8866 815.741 46.8866 794.849C46.8866 787.174 49.175 780.028 53.0979 774.066L129.136 751.919Z" stroke="white" stroke-width="0.640816"/>
<path d="M222.315 751.919L222.313 751.919C208.459 751.125 196.611 742.891 190.695 731.152C188.126 726.03 186.678 720.27 186.678 714.151C186.678 693.259 203.616 676.32 224.509 676.32C245.401 676.32 262.339 693.259 262.339 714.151C262.339 735.043 245.401 751.982 224.509 751.982C223.775 751.982 223.044 751.966 222.315 751.919Z" stroke="white" stroke-width="0.640816"/>
<path d="M146.308 774.066L146.308 774.066C153.065 763.79 164.71 757.018 177.927 757.018C191.144 757.018 202.773 763.805 209.546 774.066C213.469 780.028 215.758 787.174 215.758 794.849C215.758 815.741 198.819 832.68 177.927 832.68C157.035 832.68 140.096 815.741 140.096 794.849C140.096 787.173 142.385 780.028 146.308 774.066Z" stroke="white" stroke-width="0.640816"/>
<path d="M368.592 757.081L368.591 757.081C367.862 757.034 367.131 757.018 366.397 757.018C345.505 757.018 328.567 773.957 328.567 794.849C328.567 815.741 345.505 832.68 366.397 832.68C387.29 832.68 404.228 815.741 404.212 794.849L404.212 794.849C404.212 788.73 402.764 782.955 400.196 777.849C400.196 777.849 400.196 777.849 400.196 777.849L400.482 777.705C399.524 775.821 398.991 773.685 398.991 771.425C398.991 763.7 405.255 757.436 412.979 757.436C420.704 757.436 426.968 763.7 426.968 771.425C426.968 773.685 426.434 775.821 425.476 777.705C422.886 782.87 421.426 788.679 421.426 794.849C421.426 815.918 438.507 833 459.577 833C480.646 833 497.728 815.918 497.728 794.849C497.728 773.78 480.646 756.698 459.624 756.698C458.886 756.698 458.148 756.714 457.426 756.761L368.592 757.081ZM368.592 757.081C368.869 757.097 369.143 757.097 369.423 757.097L369.427 757.097C377.329 757.097 383.737 750.689 383.737 742.788C383.737 739.881 382.869 737.183 381.392 734.935L381.391 734.934C377.453 728.972 375.18 721.827 375.18 714.151C375.18 693.259 392.118 676.32 413.011 676.32C433.903 676.32 450.841 693.259 450.841 714.151C450.841 721.826 448.553 728.972 444.63 734.934L368.592 757.081Z" stroke="white" stroke-width="0.640816"/>
<path d="M275.412 757.081L275.414 757.081C289.269 757.875 301.117 766.109 307.033 777.848C309.602 782.97 311.05 788.73 311.05 794.849C311.05 815.741 294.111 832.68 273.219 832.68C252.327 832.68 235.388 815.741 235.388 794.849C235.388 773.957 252.327 757.018 273.219 757.018C273.953 757.018 274.683 757.034 275.412 757.081Z" stroke="white" stroke-width="0.640816"/>
<path d="M351.42 734.934L351.42 734.934C344.663 745.21 333.018 751.982 319.801 751.982C306.584 751.982 294.954 745.195 288.181 734.934C284.259 728.972 281.97 721.826 281.97 714.151C281.97 693.259 298.908 676.32 319.801 676.32C340.693 676.32 357.631 693.259 357.631 714.151C357.631 721.827 355.343 728.972 351.42 734.934Z" stroke="white" stroke-width="0.640816"/>
<path d="M599.272 751.919L599.273 751.919C600.002 751.966 600.733 751.982 601.467 751.982C622.359 751.982 639.297 735.043 639.297 714.151C639.297 693.259 622.359 676.32 601.467 676.32C580.574 676.32 563.636 693.259 563.652 714.151V714.151C563.652 720.27 565.099 726.045 567.668 731.151C567.668 731.151 567.668 731.151 567.668 731.151L567.382 731.295C568.34 733.179 568.873 735.315 568.873 737.575C568.873 745.3 562.609 751.564 554.885 751.564C547.16 751.564 540.896 745.3 540.896 737.575C540.896 735.315 541.43 733.179 542.387 731.295C544.978 726.13 546.438 720.321 546.438 714.151C546.438 693.082 529.356 676 508.287 676C487.218 676 470.136 693.082 470.136 714.151C470.136 735.22 487.218 752.302 508.24 752.302C508.978 752.302 509.716 752.286 510.438 752.239L599.272 751.919ZM599.272 751.919C598.995 751.903 598.72 751.903 598.441 751.903H598.436C590.535 751.903 584.127 758.311 584.127 766.212C584.127 769.119 584.995 771.817 586.472 774.065L586.473 774.066C590.411 780.028 592.684 787.173 592.684 794.849C592.684 815.741 575.746 832.68 554.853 832.68C533.961 832.68 517.023 815.741 517.023 794.849C517.023 787.174 519.311 780.028 523.234 774.066L599.272 751.919Z" stroke="white" stroke-width="0.640816"/>
<path d="M692.452 751.919L692.449 751.919C678.595 751.125 666.747 742.891 660.831 731.152C658.262 726.03 656.814 720.27 656.814 714.151C656.814 693.259 673.752 676.32 694.645 676.32C715.537 676.32 732.475 693.259 732.475 714.151C732.475 735.043 715.537 751.982 694.645 751.982C693.911 751.982 693.181 751.966 692.452 751.919Z" stroke="white" stroke-width="0.640816"/>
<path d="M616.444 774.066L616.444 774.066C623.201 763.79 634.846 757.018 648.063 757.018C661.28 757.018 672.909 763.805 679.682 774.066C683.605 780.028 685.894 787.174 685.894 794.849C685.894 815.741 668.956 832.68 648.063 832.68C627.171 832.68 610.232 815.741 610.232 794.849C610.232 787.173 612.521 780.028 616.444 774.066Z" stroke="white" stroke-width="0.640816"/>
<path d="M838.728 757.081L838.727 757.081C837.998 757.034 837.267 757.018 836.533 757.018C815.641 757.018 798.703 773.957 798.703 794.849C798.703 815.741 815.641 832.68 836.533 832.68C857.426 832.68 874.364 815.741 874.348 794.849L874.348 794.849C874.348 788.73 872.9 782.955 870.332 777.849C870.332 777.849 870.332 777.849 870.332 777.849L870.618 777.705C869.66 775.821 869.127 773.685 869.127 771.425C869.127 763.7 875.391 757.436 883.115 757.436C890.84 757.436 897.104 763.7 897.104 771.425C897.104 773.685 896.57 775.821 895.613 777.705C893.022 782.87 891.562 788.679 891.562 794.849C891.562 815.918 908.643 833 929.713 833C950.782 833 967.864 815.918 967.864 794.849C967.864 773.78 950.782 756.698 929.76 756.698C929.022 756.698 928.284 756.714 927.562 756.761L838.728 757.081ZM838.728 757.081C839.005 757.097 839.28 757.097 839.559 757.097L839.564 757.097C847.465 757.097 853.873 750.689 853.873 742.788C853.873 739.881 853.005 737.183 851.528 734.935L851.527 734.934C847.589 728.972 845.316 721.827 845.316 714.151C845.316 693.259 862.254 676.32 883.147 676.32C904.039 676.32 920.977 693.259 920.977 714.151C920.977 721.826 918.689 728.972 914.766 734.934L838.728 757.081Z" stroke="white" stroke-width="0.640816"/>
<path d="M745.548 757.081L745.551 757.081C759.405 757.875 771.253 766.109 777.169 777.848C779.738 782.97 781.186 788.73 781.186 794.849C781.186 815.741 764.248 832.68 743.355 832.68C722.463 832.68 705.525 815.741 705.525 794.849C705.525 773.957 722.463 757.018 743.355 757.018C744.089 757.018 744.819 757.034 745.548 757.081Z" stroke="white" stroke-width="0.640816"/>
<path d="M821.556 734.934L821.556 734.934C814.799 745.21 803.154 751.982 789.937 751.982C776.72 751.982 765.09 745.195 758.318 734.934C754.395 728.972 752.106 721.826 752.106 714.151C752.106 693.259 769.044 676.32 789.937 676.32C810.829 676.32 827.767 693.259 827.767 714.151C827.767 721.827 825.479 728.972 821.556 734.934Z" stroke="white" stroke-width="0.640816"/>
<path d="M1069.41 751.919L1069.41 751.919C1070.14 751.966 1070.87 751.982 1071.6 751.982C1092.5 751.982 1109.43 735.043 1109.43 714.151C1109.43 693.259 1092.5 676.32 1071.6 676.32C1050.71 676.32 1033.77 693.259 1033.79 714.151V714.151C1033.79 720.27 1035.24 726.045 1037.8 731.151C1037.8 731.151 1037.8 731.151 1037.8 731.151L1037.52 731.295C1038.48 733.179 1039.01 735.315 1039.01 737.575C1039.01 745.3 1032.75 751.564 1025.02 751.564C1017.3 751.564 1011.03 745.3 1011.03 737.575C1011.03 735.315 1011.57 733.179 1012.52 731.295C1015.11 726.13 1016.57 720.321 1016.57 714.151C1016.57 693.082 999.492 676 978.423 676C957.354 676 940.272 693.082 940.272 714.151C940.272 735.22 957.354 752.302 978.376 752.302C979.114 752.302 979.852 752.286 980.574 752.239L1069.41 751.919ZM1069.41 751.919C1069.13 751.903 1068.86 751.903 1068.58 751.903H1068.57C1060.67 751.903 1054.26 758.311 1054.26 766.212C1054.26 769.119 1055.13 771.817 1056.61 774.065L1056.61 774.066C1060.55 780.028 1062.82 787.173 1062.82 794.849C1062.82 815.741 1045.88 832.68 1024.99 832.68C1004.1 832.68 987.159 815.741 987.159 794.849C987.159 787.174 989.447 780.028 993.37 774.066L1069.41 751.919Z" stroke="white" stroke-width="0.640816"/>
<path d="M1162.59 751.919L1162.59 751.919C1148.73 751.125 1136.88 742.891 1130.97 731.152C1128.4 726.03 1126.95 720.27 1126.95 714.151C1126.95 693.259 1143.89 676.32 1164.78 676.32C1185.67 676.32 1202.61 693.259 1202.61 714.151C1202.61 735.043 1185.67 751.982 1164.78 751.982C1164.05 751.982 1163.32 751.966 1162.59 751.919Z" stroke="white" stroke-width="0.640816"/>
<path d="M1086.58 774.066L1086.58 774.066C1093.34 763.79 1104.98 757.018 1118.2 757.018C1131.42 757.018 1143.05 763.805 1149.82 774.066C1153.74 780.028 1156.03 787.174 1156.03 794.849C1156.03 815.741 1139.09 832.68 1118.2 832.68C1097.31 832.68 1080.37 815.741 1080.37 794.849C1080.37 787.173 1082.66 780.028 1086.58 774.066Z" stroke="white" stroke-width="0.640816"/>
<path d="M1308.86 757.081L1308.86 757.081C1308.13 757.034 1307.4 757.018 1306.67 757.018C1285.78 757.018 1268.84 773.957 1268.84 794.849C1268.84 815.741 1285.78 832.68 1306.67 832.68C1327.56 832.68 1344.5 815.741 1344.48 794.849L1344.48 794.849C1344.48 788.73 1343.04 782.955 1340.47 777.849C1340.47 777.849 1340.47 777.849 1340.47 777.849L1340.75 777.705C1339.8 775.821 1339.26 773.685 1339.26 771.425C1339.26 763.7 1345.53 757.436 1353.25 757.436C1360.98 757.436 1367.24 763.7 1367.24 771.425C1367.24 773.685 1366.71 775.821 1365.75 777.705C1363.16 782.87 1361.7 788.679 1361.7 794.849C1361.7 815.918 1378.78 833 1399.85 833C1420.92 833 1438 815.918 1438 794.849C1438 773.78 1420.92 756.698 1399.9 756.698C1399.16 756.698 1398.42 756.714 1397.7 756.761L1308.86 757.081ZM1308.86 757.081C1309.14 757.097 1309.42 757.097 1309.7 757.097L1309.7 757.097C1317.6 757.097 1324.01 750.689 1324.01 742.788C1324.01 739.881 1323.14 737.183 1321.66 734.935L1321.66 734.934C1317.73 728.972 1315.45 721.827 1315.45 714.151C1315.45 693.259 1332.39 676.32 1353.28 676.32C1374.18 676.32 1391.11 693.259 1391.11 714.151C1391.11 721.826 1388.83 728.972 1384.9 734.934L1308.86 757.081Z" stroke="white" stroke-width="0.640816"/>
<path d="M1215.68 757.081L1215.69 757.081C1229.54 757.875 1241.39 766.109 1247.31 777.848C1249.87 782.97 1251.32 788.73 1251.32 794.849C1251.32 815.741 1234.38 832.68 1213.49 832.68C1192.6 832.68 1175.66 815.741 1175.66 794.849C1175.66 773.957 1192.6 757.018 1213.49 757.018C1214.22 757.018 1214.96 757.034 1215.68 757.081Z" stroke="white" stroke-width="0.640816"/>
<path d="M1291.69 734.934L1291.69 734.934C1284.94 745.21 1273.29 751.982 1260.07 751.982C1246.86 751.982 1235.23 745.195 1228.45 734.934C1224.53 728.972 1222.24 721.826 1222.24 714.151C1222.24 693.259 1239.18 676.32 1260.07 676.32C1280.97 676.32 1297.9 693.259 1297.9 714.151C1297.9 721.827 1295.62 728.972 1291.69 734.934Z" stroke="white" stroke-width="0.640816"/>
<path d="M129.136 926.081L129.137 926.081C129.866 926.034 130.597 926.019 131.33 926.019C152.223 926.019 169.161 942.957 169.161 963.849C169.161 984.742 152.223 1001.68 131.33 1001.68C110.438 1001.68 93.5 984.742 93.5156 963.849V963.849C93.5156 957.73 94.9634 951.955 97.5318 946.849C97.5319 946.849 97.5319 946.849 97.532 946.849L97.2458 946.705C98.2035 944.821 98.7373 942.686 98.7373 940.425C98.7373 932.7 92.473 926.436 84.7486 926.436C77.0242 926.436 70.7599 932.7 70.7599 940.425C70.7599 942.686 71.2937 944.821 72.2514 946.705C74.8419 951.87 76.302 957.679 76.302 963.849C76.302 984.919 59.2204 1002 38.151 1002C17.0816 1002 0 984.919 0 963.849C0 942.78 17.0816 925.698 38.1039 925.698C38.8418 925.698 39.5797 925.714 40.3019 925.761L129.136 926.081ZM129.136 926.081C128.859 926.097 128.584 926.097 128.305 926.097H128.3C120.399 926.097 113.991 919.689 113.991 911.788C113.991 908.882 114.859 906.183 116.336 903.935L116.337 903.934C120.275 897.972 122.548 890.827 122.548 883.151C122.548 862.259 105.61 845.321 84.7172 845.321C63.8247 845.321 46.8866 862.259 46.8866 883.151C46.8866 890.827 49.175 897.972 53.0979 903.934L129.136 926.081Z" stroke="white" stroke-width="0.640816"/>
<path d="M222.315 926.081L222.313 926.081C208.459 926.875 196.611 935.11 190.695 946.848C188.126 951.97 186.678 957.73 186.678 963.849C186.678 984.742 203.616 1001.68 224.509 1001.68C245.401 1001.68 262.339 984.742 262.339 963.849C262.339 942.957 245.401 926.019 224.509 926.019C223.775 926.019 223.044 926.034 222.315 926.081Z" stroke="white" stroke-width="0.640816"/>
<path d="M146.308 903.934L146.308 903.934C153.065 914.21 164.71 920.982 177.927 920.982C191.144 920.982 202.773 914.195 209.546 903.934C213.469 897.972 215.758 890.826 215.758 883.151C215.758 862.259 198.819 845.32 177.927 845.32C157.035 845.32 140.096 862.259 140.096 883.151C140.096 890.827 142.385 897.972 146.308 903.934Z" stroke="white" stroke-width="0.640816"/>
<path d="M368.592 920.919L368.591 920.919C367.862 920.966 367.131 920.982 366.397 920.982C345.505 920.982 328.567 904.043 328.567 883.151C328.567 862.259 345.505 845.32 366.397 845.32C387.29 845.32 404.228 862.259 404.212 883.151L404.212 883.151C404.212 889.27 402.764 895.045 400.196 900.151C400.196 900.151 400.196 900.151 400.196 900.151L400.482 900.295C399.524 902.179 398.99 904.315 398.99 906.575C398.99 914.3 405.255 920.564 412.979 920.564C420.704 920.564 426.968 914.3 426.968 906.575C426.968 904.315 426.434 902.179 425.476 900.295C422.886 895.13 421.426 889.321 421.426 883.151C421.426 862.082 438.507 845 459.577 845C480.646 845 497.728 862.082 497.728 883.151C497.728 904.22 480.646 921.302 459.624 921.302C458.886 921.302 458.148 921.286 457.426 921.239L368.592 920.919ZM368.592 920.919C368.869 920.903 369.143 920.903 369.423 920.903L369.427 920.903C377.329 920.903 383.737 927.311 383.737 935.212C383.737 938.119 382.869 940.817 381.392 943.065L381.391 943.066C377.453 949.028 375.18 956.173 375.18 963.849C375.18 984.741 392.118 1001.68 413.011 1001.68C433.903 1001.68 450.841 984.741 450.841 963.849C450.841 956.174 448.553 949.028 444.63 943.066L368.592 920.919Z" stroke="white" stroke-width="0.640816"/>
<path d="M275.412 920.919L275.414 920.919C289.269 920.125 301.117 911.891 307.033 900.152C309.602 895.03 311.05 889.27 311.05 883.151C311.05 862.259 294.111 845.32 273.219 845.32C252.327 845.32 235.388 862.259 235.388 883.151C235.388 904.043 252.327 920.982 273.219 920.982C273.953 920.982 274.683 920.966 275.412 920.919Z" stroke="white" stroke-width="0.640816"/>
<path d="M351.42 943.066L351.42 943.066C344.663 932.79 333.018 926.018 319.801 926.018C306.584 926.018 294.954 932.806 288.181 943.066C284.259 949.028 281.97 956.174 281.97 963.849C281.97 984.741 298.908 1001.68 319.801 1001.68C340.693 1001.68 357.631 984.741 357.631 963.849C357.631 956.174 355.343 949.028 351.42 943.066Z" stroke="white" stroke-width="0.640816"/>
<path d="M599.272 926.081L599.273 926.081C600.002 926.034 600.733 926.019 601.466 926.019C622.359 926.019 639.297 942.957 639.297 963.849C639.297 984.742 622.359 1001.68 601.466 1001.68C580.574 1001.68 563.636 984.742 563.652 963.849V963.849C563.652 957.73 565.099 951.955 567.668 946.849C567.668 946.849 567.668 946.849 567.668 946.849L567.382 946.705C568.339 944.821 568.873 942.686 568.873 940.425C568.873 932.7 562.609 926.436 554.885 926.436C547.16 926.436 540.896 932.7 540.896 940.425C540.896 942.686 541.43 944.821 542.387 946.705C544.978 951.87 546.438 957.679 546.438 963.849C546.438 984.919 529.356 1002 508.287 1002C487.218 1002 470.136 984.919 470.136 963.849C470.136 942.78 487.218 925.698 508.24 925.698C508.978 925.698 509.716 925.714 510.438 925.761L599.272 926.081ZM599.272 926.081C598.995 926.097 598.72 926.097 598.441 926.097H598.436C590.535 926.097 584.127 919.689 584.127 911.788C584.127 908.882 584.995 906.183 586.472 903.935L586.473 903.934C590.411 897.972 592.684 890.827 592.684 883.151C592.684 862.259 575.746 845.321 554.853 845.321C533.961 845.321 517.023 862.259 517.023 883.151C517.023 890.827 519.311 897.972 523.234 903.934L599.272 926.081Z" stroke="white" stroke-width="0.640816"/>
<path d="M692.451 926.081L692.449 926.081C678.595 926.875 666.747 935.11 660.831 946.848C658.262 951.97 656.814 957.73 656.814 963.849C656.814 984.742 673.752 1001.68 694.645 1001.68C715.537 1001.68 732.475 984.742 732.475 963.849C732.475 942.957 715.537 926.019 694.645 926.019C693.911 926.019 693.18 926.034 692.451 926.081Z" stroke="white" stroke-width="0.640816"/>
<path d="M616.444 903.934L616.444 903.934C623.201 914.21 634.846 920.982 648.063 920.982C661.28 920.982 672.909 914.195 679.682 903.934C683.605 897.972 685.894 890.826 685.894 883.151C685.894 862.259 668.955 845.32 648.063 845.32C627.171 845.32 610.232 862.259 610.232 883.151C610.232 890.827 612.521 897.972 616.444 903.934Z" stroke="white" stroke-width="0.640816"/>
<path d="M599.272 926.081L599.273 926.081C600.002 926.034 600.733 926.019 601.466 926.019C622.359 926.019 639.297 942.957 639.297 963.849C639.297 984.742 622.359 1001.68 601.466 1001.68C580.574 1001.68 563.636 984.742 563.652 963.849V963.849C563.652 957.73 565.099 951.955 567.668 946.849C567.668 946.849 567.668 946.849 567.668 946.849L567.382 946.705C568.339 944.821 568.873 942.686 568.873 940.425C568.873 932.7 562.609 926.436 554.885 926.436C547.16 926.436 540.896 932.7 540.896 940.425C540.896 942.686 541.43 944.821 542.387 946.705C544.978 951.87 546.438 957.679 546.438 963.849C546.438 984.919 529.356 1002 508.287 1002C487.218 1002 470.136 984.919 470.136 963.849C470.136 942.78 487.218 925.698 508.24 925.698C508.978 925.698 509.716 925.714 510.438 925.761L599.272 926.081ZM599.272 926.081C598.995 926.097 598.72 926.097 598.441 926.097H598.436C590.535 926.097 584.127 919.689 584.127 911.788C584.127 908.882 584.995 906.183 586.472 903.935L586.473 903.934C590.411 897.972 592.684 890.827 592.684 883.151C592.684 862.259 575.746 845.321 554.853 845.321C533.961 845.321 517.023 862.259 517.023 883.151C517.023 890.827 519.311 897.972 523.234 903.934L599.272 926.081Z" stroke="white" stroke-width="0.640816"/>
<path d="M692.451 926.081L692.449 926.081C678.595 926.875 666.747 935.11 660.831 946.848C658.262 951.97 656.814 957.73 656.814 963.849C656.814 984.742 673.752 1001.68 694.645 1001.68C715.537 1001.68 732.475 984.742 732.475 963.849C732.475 942.957 715.537 926.019 694.645 926.019C693.911 926.019 693.18 926.034 692.451 926.081Z" stroke="white" stroke-width="0.640816"/>
<path d="M616.444 903.934L616.444 903.934C623.201 914.21 634.846 920.982 648.063 920.982C661.28 920.982 672.909 914.195 679.682 903.934C683.605 897.972 685.894 890.826 685.894 883.151C685.894 862.259 668.955 845.32 648.063 845.32C627.171 845.32 610.232 862.259 610.232 883.151C610.232 890.827 612.521 897.972 616.444 903.934Z" stroke="white" stroke-width="0.640816"/>
<path d="M599.272 926.081L599.273 926.081C600.002 926.034 600.733 926.019 601.466 926.019C622.359 926.019 639.297 942.957 639.297 963.849C639.297 984.742 622.359 1001.68 601.466 1001.68C580.574 1001.68 563.636 984.742 563.652 963.849V963.849C563.652 957.73 565.099 951.955 567.668 946.849C567.668 946.849 567.668 946.849 567.668 946.849L567.382 946.705C568.339 944.821 568.873 942.686 568.873 940.425C568.873 932.7 562.609 926.436 554.885 926.436C547.16 926.436 540.896 932.7 540.896 940.425C540.896 942.686 541.43 944.821 542.387 946.705C544.978 951.87 546.438 957.679 546.438 963.849C546.438 984.919 529.356 1002 508.287 1002C487.218 1002 470.136 984.919 470.136 963.849C470.136 942.78 487.218 925.698 508.24 925.698C508.978 925.698 509.716 925.714 510.438 925.761L599.272 926.081ZM599.272 926.081C598.995 926.097 598.72 926.097 598.441 926.097H598.436C590.535 926.097 584.127 919.689 584.127 911.788C584.127 908.882 584.995 906.183 586.472 903.935L586.473 903.934C590.411 897.972 592.684 890.827 592.684 883.151C592.684 862.259 575.746 845.321 554.853 845.321C533.961 845.321 517.023 862.259 517.023 883.151C517.023 890.827 519.311 897.972 523.234 903.934L599.272 926.081Z" stroke="white" stroke-width="0.640816"/>
<path d="M692.451 926.081L692.449 926.081C678.595 926.875 666.747 935.11 660.831 946.848C658.262 951.97 656.814 957.73 656.814 963.849C656.814 984.742 673.752 1001.68 694.645 1001.68C715.537 1001.68 732.475 984.742 732.475 963.849C732.475 942.957 715.537 926.019 694.645 926.019C693.911 926.019 693.18 926.034 692.451 926.081Z" stroke="white" stroke-width="0.640816"/>
<path d="M616.444 903.934L616.444 903.934C623.201 914.21 634.846 920.982 648.063 920.982C661.28 920.982 672.909 914.195 679.682 903.934C683.605 897.972 685.894 890.826 685.894 883.151C685.894 862.259 668.955 845.32 648.063 845.32C627.171 845.32 610.232 862.259 610.232 883.151C610.232 890.827 612.521 897.972 616.444 903.934Z" stroke="white" stroke-width="0.640816"/>
<path d="M599.272 926.081L599.273 926.081C600.002 926.034 600.733 926.019 601.466 926.019C622.359 926.019 639.297 942.957 639.297 963.849C639.297 984.742 622.359 1001.68 601.466 1001.68C580.574 1001.68 563.636 984.742 563.652 963.849V963.849C563.652 957.73 565.099 951.955 567.668 946.849C567.668 946.849 567.668 946.849 567.668 946.849L567.382 946.705C568.339 944.821 568.873 942.686 568.873 940.425C568.873 932.7 562.609 926.436 554.885 926.436C547.16 926.436 540.896 932.7 540.896 940.425C540.896 942.686 541.43 944.821 542.387 946.705C544.978 951.87 546.438 957.679 546.438 963.849C546.438 984.919 529.356 1002 508.287 1002C487.218 1002 470.136 984.919 470.136 963.849C470.136 942.78 487.218 925.698 508.24 925.698C508.978 925.698 509.716 925.714 510.438 925.761L599.272 926.081ZM599.272 926.081C598.995 926.097 598.72 926.097 598.441 926.097H598.436C590.535 926.097 584.127 919.689 584.127 911.788C584.127 908.882 584.995 906.183 586.472 903.935L586.473 903.934C590.411 897.972 592.684 890.827 592.684 883.151C592.684 862.259 575.746 845.321 554.853 845.321C533.961 845.321 517.023 862.259 517.023 883.151C517.023 890.827 519.311 897.972 523.234 903.934L599.272 926.081Z" stroke="white" stroke-width="0.640816"/>
<path d="M692.451 926.081L692.449 926.081C678.595 926.875 666.747 935.11 660.831 946.848C658.262 951.97 656.814 957.73 656.814 963.849C656.814 984.742 673.752 1001.68 694.645 1001.68C715.537 1001.68 732.475 984.742 732.475 963.849C732.475 942.957 715.537 926.019 694.645 926.019C693.911 926.019 693.18 926.034 692.451 926.081Z" stroke="white" stroke-width="0.640816"/>
<path d="M616.444 903.934L616.444 903.934C623.201 914.21 634.846 920.982 648.063 920.982C661.28 920.982 672.909 914.195 679.682 903.934C683.605 897.972 685.894 890.826 685.894 883.151C685.894 862.259 668.955 845.32 648.063 845.32C627.171 845.32 610.232 862.259 610.232 883.151C610.232 890.827 612.521 897.972 616.444 903.934Z" stroke="white" stroke-width="0.640816"/>
<path d="M838.728 920.919L838.727 920.919C837.998 920.966 837.267 920.982 836.533 920.982C815.641 920.982 798.703 904.043 798.703 883.151C798.703 862.259 815.641 845.32 836.533 845.32C857.426 845.32 874.364 862.259 874.348 883.151L874.348 883.151C874.348 889.27 872.9 895.045 870.332 900.151C870.332 900.151 870.332 900.151 870.332 900.151L870.618 900.295C869.66 902.179 869.127 904.315 869.127 906.575C869.127 914.3 875.391 920.564 883.115 920.564C890.84 920.564 897.104 914.3 897.104 906.575C897.104 904.315 896.57 902.179 895.612 900.295C893.022 895.13 891.562 889.321 891.562 883.151C891.562 862.082 908.643 845 929.713 845C950.782 845 967.864 862.082 967.864 883.151C967.864 904.22 950.782 921.302 929.76 921.302C929.022 921.302 928.284 921.286 927.562 921.239L838.728 920.919ZM838.728 920.919C839.005 920.903 839.279 920.903 839.559 920.903L839.563 920.903C847.465 920.903 853.873 927.311 853.873 935.212C853.873 938.119 853.005 940.817 851.528 943.065L851.527 943.066C847.589 949.028 845.316 956.173 845.316 963.849C845.316 984.741 862.254 1001.68 883.147 1001.68C904.039 1001.68 920.977 984.741 920.977 963.849C920.977 956.174 918.689 949.028 914.766 943.066L838.728 920.919Z" stroke="white" stroke-width="0.640816"/>
<path d="M745.548 920.919L745.55 920.919C759.405 920.125 771.253 911.891 777.169 900.152C779.738 895.03 781.186 889.27 781.186 883.151C781.186 862.259 764.247 845.32 743.355 845.32C722.463 845.32 705.524 862.259 705.524 883.151C705.524 904.043 722.463 920.982 743.355 920.982C744.089 920.982 744.819 920.966 745.548 920.919Z" stroke="white" stroke-width="0.640816"/>
<path d="M821.556 943.066L821.556 943.066C814.799 932.79 803.154 926.018 789.937 926.018C776.72 926.018 765.09 932.806 758.317 943.066C754.395 949.028 752.106 956.174 752.106 963.849C752.106 984.741 769.044 1001.68 789.937 1001.68C810.829 1001.68 827.767 984.741 827.767 963.849C827.767 956.174 825.479 949.028 821.556 943.066Z" stroke="white" stroke-width="0.640816"/>
<path d="M1069.41 926.081L1069.41 926.081C1070.14 926.034 1070.87 926.019 1071.6 926.019C1092.49 926.019 1109.43 942.957 1109.43 963.849C1109.43 984.742 1092.49 1001.68 1071.6 1001.68C1050.71 1001.68 1033.77 984.742 1033.79 963.849V963.849C1033.79 957.73 1035.24 951.955 1037.8 946.849C1037.8 946.849 1037.8 946.849 1037.8 946.849L1037.52 946.705C1038.48 944.821 1039.01 942.685 1039.01 940.425C1039.01 932.7 1032.74 926.436 1025.02 926.436C1017.3 926.436 1011.03 932.7 1011.03 940.425C1011.03 942.685 1011.57 944.821 1012.52 946.705C1015.11 951.87 1016.57 957.679 1016.57 963.849C1016.57 984.918 999.492 1002 978.423 1002C957.354 1002 940.272 984.918 940.272 963.849C940.272 942.78 957.354 925.698 978.376 925.698C979.114 925.698 979.852 925.714 980.574 925.761L1069.41 926.081ZM1069.41 926.081C1069.13 926.097 1068.86 926.097 1068.58 926.097H1068.57C1060.67 926.097 1054.26 919.689 1054.26 911.788C1054.26 908.882 1055.13 906.183 1056.61 903.935L1056.61 903.934C1060.55 897.972 1062.82 890.827 1062.82 883.151C1062.82 862.259 1045.88 845.321 1024.99 845.321C1004.1 845.321 987.159 862.259 987.159 883.151C987.159 890.826 989.447 897.972 993.37 903.934L1069.41 926.081Z" stroke="white" stroke-width="0.640816"/>
<path d="M1162.59 926.081L1162.59 926.081C1148.73 926.875 1136.88 935.11 1130.97 946.848C1128.4 951.97 1126.95 957.73 1126.95 963.849C1126.95 984.742 1143.89 1001.68 1164.78 1001.68C1185.67 1001.68 1202.61 984.742 1202.61 963.849C1202.61 942.957 1185.67 926.019 1164.78 926.019C1164.05 926.019 1163.32 926.034 1162.59 926.081Z" stroke="white" stroke-width="0.640816"/>
<path d="M1086.58 903.934L1086.58 903.935C1093.34 914.21 1104.98 920.982 1118.2 920.982C1131.42 920.982 1143.05 914.195 1149.82 903.934C1153.74 897.972 1156.03 890.826 1156.03 883.151C1156.03 862.259 1139.09 845.32 1118.2 845.32C1097.31 845.32 1080.37 862.259 1080.37 883.151C1080.37 890.827 1082.66 897.972 1086.58 903.934Z" stroke="white" stroke-width="0.640816"/>
<path d="M1308.86 920.919L1308.86 920.919C1308.13 920.966 1307.4 920.982 1306.67 920.982C1285.78 920.982 1268.84 904.043 1268.84 883.151C1268.84 862.259 1285.78 845.32 1306.67 845.32C1327.56 845.32 1344.5 862.259 1344.48 883.151L1344.48 883.151C1344.48 889.27 1343.04 895.045 1340.47 900.151C1340.47 900.151 1340.47 900.151 1340.47 900.151L1340.75 900.295C1339.8 902.179 1339.26 904.315 1339.26 906.575C1339.26 914.3 1345.53 920.564 1353.25 920.564C1360.98 920.564 1367.24 914.3 1367.24 906.575C1367.24 904.315 1366.71 902.179 1365.75 900.295C1363.16 895.13 1361.7 889.321 1361.7 883.151C1361.7 862.082 1378.78 845 1399.85 845C1420.92 845 1438 862.082 1438 883.151C1438 904.22 1420.92 921.302 1399.9 921.302C1399.16 921.302 1398.42 921.286 1397.7 921.239L1308.86 920.919ZM1308.86 920.919C1309.14 920.903 1309.42 920.903 1309.7 920.903L1309.7 920.903C1317.6 920.903 1324.01 927.311 1324.01 935.212C1324.01 938.119 1323.14 940.817 1321.66 943.065L1321.66 943.066C1317.73 949.028 1315.45 956.173 1315.45 963.849C1315.45 984.741 1332.39 1001.68 1353.28 1001.68C1374.18 1001.68 1391.11 984.741 1391.11 963.849C1391.11 956.174 1388.83 949.028 1384.9 943.066L1308.86 920.919Z" stroke="white" stroke-width="0.640816"/>
<path d="M1215.68 920.919L1215.69 920.919C1229.54 920.125 1241.39 911.891 1247.31 900.152C1249.87 895.03 1251.32 889.27 1251.32 883.151C1251.32 862.259 1234.38 845.32 1213.49 845.32C1192.6 845.32 1175.66 862.259 1175.66 883.151C1175.66 904.043 1192.6 920.982 1213.49 920.982C1214.22 920.982 1214.96 920.966 1215.68 920.919Z" stroke="white" stroke-width="0.640816"/>
<path d="M1291.69 943.066L1291.69 943.066C1284.94 932.79 1273.29 926.018 1260.07 926.018C1246.86 926.018 1235.23 932.806 1228.45 943.066C1224.53 949.028 1222.24 956.174 1222.24 963.849C1222.24 984.741 1239.18 1001.68 1260.07 1001.68C1280.97 1001.68 1297.9 984.741 1297.9 963.849C1297.9 956.174 1295.62 949.028 1291.69 943.066Z" stroke="white" stroke-width="0.640816"/>
</g>
</svg>
